PathFileType	4	(X/Y/Z)	s08c0301.trc
DataRate	CameraRate	NumFrames	NumMarkers	Units	OrigDataRate	OrigDataStartFrame	OrigNumFrames
200	200	4	50	mm	200	750	2000
Frame#	Time	racr			lacr			c7			jug			rlel			rdr			llel			ldr			s2			lic			ric			lasi			rasi			rpsi			lpsi			rgt			lgt			rth1			rth2			rth3			rth4			rlfc			rmfc			rsh1			rsh2			rsh3			rsh4			rlmal			rmmal			rcal			rtoe			rmt5			lth1			lth2			lth4			lth3			llfc			lmfc			llmal			lmmal			lcal			lmt5			lsh1			lsh2			lsh3			lsh4			ltoe			SBIKE			LBIKE			RBIKE			
		X1	Y1	Z1	X2	Y2	Z2	X3	Y3	Z3	X4	Y4	Z4	X5	Y5	Z5	X6	Y6	Z6	X7	Y7	Z7	X8	Y8	Z8	X9	Y9	Z9	X10	Y10	Z10	X11	Y11	Z11	X12	Y12	Z12	X13	Y13	Z13	X14	Y14	Z14	X15	Y15	Z15	X16	Y16	Z16	X17	Y17	Z17	X18	Y18	Z18	X19	Y19	Z19	X20	Y20	Z20	X21	Y21	Z21	X22	Y22	Z22	X23	Y23	Z23	X24	Y24	Z24	X25	Y25	Z25	X26	Y26	Z26	X27	Y27	Z27	X28	Y28	Z28	X29	Y29	Z29	X30	Y30	Z30	X31	Y31	Z31	X32	Y32	Z32	X33	Y33	Z33	X34	Y34	Z34	X35	Y35	Z35	X36	Y36	Z36	X37	Y37	Z37	X38	Y38	Z38	X39	Y39	Z39	X40	Y40	Z40	X41	Y41	Z41	X42	Y42	Z42	X43	Y43	Z43	X44	Y44	Z44	X45	Y45	Z45	X46	Y46	Z46	X47	Y47	Z47	X48	Y48	Z48	X49	Y49	Z49	X50	Y50	Z50	
750	3.7500	847.892261	1330.462429	-36.298727	854.240642	1350.288324	-373.232428	851.788323	1391.920330	-198.969768	759.148650	1259.507523	-206.915797	653.361588	1121.504619	50.724801	797.435296	904.968725	-54.733605	714.129806	1133.906296	-509.734444	811.372738	887.532093	-431.677461	275.222964	1280.646364	-291.372629	459.708711	1247.793556	-400.991772	395.706930	1267.762938	-94.977619	457.949374	1189.921926	-363.994136	422.878854	1212.776732	-128.545893	302.329616	1318.192110	-237.250414	320.711545	1317.121431	-325.704301	302.508763	1170.762943	-83.142044	382.608233	1131.998778	-449.708258	402.997503	1028.236918	-57.252279	470.496528	971.383809	-47.367938	501.181421	889.713336	-51.348821	500.812059	992.701881	-49.683340	565.876329	785.298383	-56.135097	564.081713	779.678019	-176.078113	479.715678	682.541133	-36.295797	464.547244	594.997664	-54.714954	409.009402	530.534512	-65.333686	496.109177	585.723862	-79.513734	351.319036	426.412141	-79.384413	377.513517	442.808041	-165.019693	270.352274	405.838820	-128.354329	561.873835	361.497230	-102.067673	466.747505	340.063863	-42.231682	427.546588	1003.771639	-443.561696	471.154104	928.689134	-433.804683	503.289105	938.136811	-419.826396	472.229353	839.648245	-433.459628	465.560050	706.299497	-418.914709	449.339267	686.781775	-311.094218	146.221948	427.417775	-414.521891	180.646145	419.253211	-330.899534	100.915457	467.923317	-369.315810	145.417656	256.061526	-421.774889	369.028418	616.032933	-440.056120	320.483812	547.713094	-422.322744	242.369143	506.219658	-422.803699	336.233666	533.849787	-386.303197	210.125457	199.137715	-351.619935	-138.628436	941.493099	-228.763851	16.875239	80.207534	-427.847235	16.729082	80.041712	-29.429210	
751	3.7550	849.074531	1328.048162	-36.710681	853.407048	1350.553813	-374.826032	852.245766	1391.227611	-200.095610	758.978117	1259.289378	-208.508623	653.327299	1120.490548	51.291984	797.229394	904.891893	-54.661182	713.131242	1133.561336	-509.780922	811.134638	887.318828	-431.684186	274.696513	1279.573190	-291.579823	459.861653	1248.451229	-400.247318	396.579463	1264.838798	-93.593982	458.382519	1190.884269	-362.835379	422.827144	1210.225820	-127.204003	302.817086	1316.135872	-238.138071	320.557463	1316.522909	-324.350806	301.052190	1167.325980	-83.458144	385.601729	1132.553848	-449.647275	400.719536	1023.807607	-57.904817	467.289448	965.676458	-48.213032	496.612019	883.629262	-52.528005	497.933853	986.276237	-50.846356	559.869591	778.321886	-57.471398	558.045897	771.694470	-177.114617	475.026695	674.061616	-36.440839	461.207198	586.348770	-54.634608	406.903607	520.677994	-65.043722	493.095344	577.570295	-78.753480	351.730773	414.838116	-78.905177	377.532829	431.803050	-164.418217	270.899605	393.807457	-127.791964	562.724830	350.963708	-102.244291	467.799382	328.958702	-42.261128	431.693026	1005.000803	-442.874761	476.280209	930.476795	-432.336950	507.930020	940.443704	-417.621331	478.788925	841.542411	-432.413832	473.117102	708.606342	-417.736197	455.617667	689.378992	-309.942868	147.353800	437.668659	-414.628881	181.503504	429.181681	-331.062570	102.476644	478.805647	-369.579649	144.242467	266.280063	-421.736205	375.096477	620.593055	-439.182503	324.828587	553.496023	-421.844413	245.668600	513.873715	-422.414147	340.035934	539.077336	-385.506162	208.189968	208.688150	-351.710130	-138.645257	941.461452	-228.760907	16.855169	80.149123	-427.882178	16.690621	80.033514	-29.441519	
752	3.7600	850.548725	1325.872735	-37.270324	852.572414	1350.948498	-376.629164	852.744475	1390.776709	-201.352718	759.114785	1259.124005	-210.145276	653.899407	1119.560510	52.327342	797.078466	904.863539	-54.349583	712.006928	1133.254136	-510.049295	810.933436	887.233298	-431.715789	274.719065	1278.225496	-290.609129	459.977044	1248.902260	-399.262832	397.344422	1261.906218	-92.615950	458.771668	1191.502766	-361.911834	422.934966	1207.101998	-125.948594	301.788096	1315.083445	-231.560840	320.452917	1315.616638	-323.437922	300.949785	1163.822394	-84.187506	388.134960	1133.135811	-449.475719	398.653947	1018.946272	-58.606567	464.111190	959.633262	-49.203593	491.826985	877.082490	-53.753726	495.167286	979.546313	-51.850854	553.829946	770.997931	-58.954816	551.829498	763.605178	-178.421451	470.637104	665.090719	-36.667662	458.105010	577.254426	-54.817225	404.756262	510.812755	-64.747160	489.198922	568.858168	-78.869328	351.675232	403.310267	-78.152260	377.001729	420.755664	-163.740170	270.939769	382.143334	-126.963091	563.025812	340.192692	-102.371030	468.312112	317.745524	-42.194056	435.500963	1006.016219	-442.294969	481.042110	932.325695	-431.075108	512.203871	942.681018	-415.540982	484.964822	843.321297	-431.348773	480.397364	710.938264	-416.445751	461.745418	691.914242	-308.810753	148.820450	448.034917	-414.603548	182.696919	438.508574	-330.371528	104.211260	489.661102	-369.738404	143.756507	276.745482	-421.754470	381.083006	625.194285	-438.264203	329.749199	559.520048	-421.347575	249.160852	521.723008	-421.922164	344.177606	544.511577	-384.848953	207.172217	218.635476	-351.784417	-138.669490	941.440340	-228.659259	16.844276	80.130358	-427.873653	16.658137	80.038248	-29.407722	
753	3.7650	852.382446	1323.671356	-38.431275	851.744296	1351.380096	-378.712750	853.342476	1390.408428	-202.861301	759.562838	1258.897112	-212.102405	655.066136	1118.793414	53.835753	796.982714	904.838370	-53.846787	710.833470	1132.987722	-510.375663	810.692235	887.172703	-431.583865	275.717637	1276.621219	-290.386144	459.969212	1248.974566	-398.189529	398.041492	1258.859463	-91.772510	459.133046	1191.778238	-361.072124	423.254000	1203.578459	-124.508833	301.230403	1313.485068	-229.646543	320.627093	1314.988223	-322.986086	301.022115	1160.446602	-84.347731	390.276534	1133.643506	-449.261363	396.633832	1013.774960	-59.276615	460.831591	953.219586	-50.080933	486.953729	869.985980	-55.198776	492.465005	972.303722	-52.906114	547.683874	763.096642	-60.652390	545.288018	755.459471	-179.771696	466.667389	655.907411	-37.263628	455.242856	567.295703	-56.395916	402.848648	500.592006	-64.585269	486.006957	559.951392	-79.894898	351.087472	392.100789	-77.092234	376.077644	409.614895	-163.011556	270.341846	370.695934	-125.775981	562.811849	329.372197	-102.347149	468.215387	306.440049	-42.095498	438.851760	1006.996238	-441.899138	485.485672	934.061662	-429.922017	516.112128	944.905418	-413.618567	490.845282	845.153893	-430.271939	487.669496	713.452102	-414.855083	468.406506	694.575005	-306.987140	150.468335	458.544975	-414.554305	184.107864	448.554261	-330.139572	105.960786	500.681578	-369.910848	144.025296	287.412965	-421.792921	387.183624	630.077967	-437.312184	334.324882	565.815896	-420.372155	252.681576	529.769954	-421.475583	348.199235	550.143332	-383.674554	206.931552	228.692744	-351.708500	-138.672923	941.451110	-228.525845	16.834209	80.163119	-427.842506	16.668424	80.024969	-29.387285	
